<?xml version="1.0" standalone="no"?>
<!DOCTYPE svg PUBLIC "-//W3C//DTD SVG 1.1//EN" "http://www.w3.org/Graphics/SVG/1.1/DTD/svg11.dtd" >
<svg xmlns="http://www.w3.org/2000/svg">
<metadata></metadata>
<defs>
<font id="tetroserbogiaregular" horiz-adv-x="1197" >
<font-face units-per-em="2048" ascent="1638" descent="-410" />
<missing-glyph horiz-adv-x="1199" />
<glyph horiz-adv-x="2048" />
<glyph horiz-adv-x="2048" />
<glyph unicode="&#xd;" horiz-adv-x="569" />
<glyph unicode=" "  horiz-adv-x="1199" />
<glyph unicode="&#x09;" horiz-adv-x="1199" />
<glyph unicode="&#xa0;" horiz-adv-x="1199" />
<glyph unicode="!" horiz-adv-x="1201" d="M303 -1v182h137v-182h-137zM303 399v182h137v-182h-137zM303 599v182h137v-182h-137zM303 799v182h137v-182h-137zM303 999v182h137v-182h-137zM303 1199v182h137v-182h-137zM455 -1v182h137v-182h-137zM455 399v182h137v-182h-137zM455 599v182h137v-182h-137zM455 799 v182h137v-182h-137zM455 999v182h137v-182h-137zM455 1199v182h137v-182h-137zM607 799v182h137v-182h-137zM607 999v182h137v-182h-137zM607 1199v182h137v-182h-137z" />
<glyph unicode="&#x22;" horiz-adv-x="1201" d="M151 799v182h137v-182h-137zM151 999v182h137v-182h-137zM151 1199v182h137v-182h-137zM303 999v182h137v-182h-137zM303 1199v182h137v-182h-137zM607 799v182h137v-182h-137zM607 999v182h137v-182h-137zM607 1199v182h137v-182h-137zM759 999v182h137v-182h-137z M759 1199v182h137v-182h-137z" />
<glyph unicode="#" horiz-adv-x="1139" />
<glyph unicode="$" horiz-adv-x="1139" />
<glyph unicode="%" horiz-adv-x="1821" />
<glyph unicode="&#x26;" horiz-adv-x="1366" />
<glyph unicode="'" horiz-adv-x="1201" d="M303 799v182h137v-182h-137zM455 799v182h137v-182h-137zM455 999v182h137v-182h-137zM455 1199v182h137v-182h-137zM607 999v182h137v-182h-137zM607 1199v182h137v-182h-137z" />
<glyph unicode="(" horiz-adv-x="682" />
<glyph unicode=")" horiz-adv-x="682" />
<glyph unicode="*" horiz-adv-x="1201" />
<glyph unicode="+" horiz-adv-x="1196" />
<glyph unicode="," horiz-adv-x="1201" d="M303 -1v182h137v-182h-137zM455 -1v182h137v-182h-137zM455 199v182h137v-182h-137zM455 399v182h137v-182h-137zM607 199v182h137v-182h-137zM607 399v182h137v-182h-137z" />
<glyph unicode="-" horiz-adv-x="1201" d="M151 599v182h137v-182h-137zM303 599v182h137v-182h-137zM455 599v182h137v-182h-137zM607 599v182h137v-182h-137zM759 599v182h137v-182h-137z" />
<glyph unicode="." horiz-adv-x="1201" d="M455 -1v182h137v-182h-137zM455 199v182h137v-182h-137zM607 -1v182h137v-182h-137zM607 199v182h137v-182h-137z" />
<glyph unicode="/" horiz-adv-x="569" />
<glyph unicode="0" d="M-1 399v182h137v-182h-137zM-1 599v182h137v-182h-137zM-1 799v182h137v-182h-137zM151 199v182h137v-182h-137zM151 399v182h137v-182h-137zM151 599v182h137v-182h-137zM151 799v182h137v-182h-137zM151 999v182h137v-182h-137zM303 -1v182h137v-182h-137zM303 199v182 h137v-182h-137zM303 1199v182h137v-182h-137zM455 -1v182h137v-182h-137zM455 1199v182h137v-182h-137zM607 -1v182h137v-182h-137zM607 999v182h137v-182h-137zM607 1199v182h137v-182h-137zM759 199v182h137v-182h-137zM759 399v182h137v-182h-137zM759 599v182h137v-182 h-137zM759 799v182h137v-182h-137zM759 999v182h137v-182h-137zM911 399v182h137v-182h-137zM911 599v182h137v-182h-137zM911 799v182h137v-182h-137z" />
<glyph unicode="1" horiz-adv-x="1198" d="M151 -1v182h137v-182h-137zM303 -1v182h137v-182h-137zM303 999v182h137v-182h-137zM455 -1v182h137v-182h-137zM455 199v182h137v-182h-137zM455 399v182h137v-182h-137zM455 599v182h137v-182h-137zM455 799v182h137v-182h-137zM455 999v182h137v-182h-137zM455 1199 v182h137v-182h-137zM607 -1v182h137v-182h-137zM607 199v182h137v-182h-137zM607 399v182h137v-182h-137zM607 599v182h137v-182h-137zM607 799v182h137v-182h-137zM607 999v182h137v-182h-137zM607 1199v182h137v-182h-137zM759 -1v182h137v-182h-137zM911 -1v182h137v-182 h-137z" />
<glyph unicode="2" d="M-1 -1v182h137v-182h-137zM-1 199v182h137v-182h-137zM-1 999v182h137v-182h-137zM151 -1v182h137v-182h-137zM151 199v182h137v-182h-137zM151 399v182h137v-182h-137zM151 999v182h137v-182h-137zM151 1199v182h137v-182h-137zM303 -1v182h137v-182h-137zM303 199v182 h137v-182h-137zM303 399v182h137v-182h-137zM303 599v182h137v-182h-137zM303 1199v182h137v-182h-137zM455 -1v182h137v-182h-137zM455 399v182h137v-182h-137zM455 599v182h137v-182h-137zM455 1199v182h137v-182h-137zM607 -1v182h137v-182h-137zM607 399v182h137v-182 h-137zM607 599v182h137v-182h-137zM607 799v182h137v-182h-137zM607 1199v182h137v-182h-137zM759 -1v182h137v-182h-137zM759 599v182h137v-182h-137zM759 799v182h137v-182h-137zM759 999v182h137v-182h-137zM759 1199v182h137v-182h-137zM911 -1v182h137v-182h-137z M911 799v182h137v-182h-137zM911 999v182h137v-182h-137z" />
<glyph unicode="3" d="M-1 199v182h137v-182h-137zM151 -1v182h137v-182h-137zM151 199v182h137v-182h-137zM151 1199v182h137v-182h-137zM303 -1v182h137v-182h-137zM303 599v182h137v-182h-137zM303 1199v182h137v-182h-137zM455 -1v182h137v-182h-137zM455 599v182h137v-182h-137zM455 799 v182h137v-182h-137zM455 1199v182h137v-182h-137zM607 -1v182h137v-182h-137zM607 599v182h137v-182h-137zM607 799v182h137v-182h-137zM607 999v182h137v-182h-137zM607 1199v182h137v-182h-137zM759 -1v182h137v-182h-137zM759 199v182h137v-182h-137zM759 399v182h137 v-182h-137zM759 599v182h137v-182h-137zM759 999v182h137v-182h-137zM759 1199v182h137v-182h-137zM911 199v182h137v-182h-137zM911 399v182h137v-182h-137zM911 1199v182h137v-182h-137z" />
<glyph unicode="4" d="M-1 399v182h137v-182h-137zM-1 599v182h137v-182h-137zM151 399v182h137v-182h-137zM151 599v182h137v-182h-137zM151 799v182h137v-182h-137zM303 399v182h137v-182h-137zM303 799v182h137v-182h-137zM303 999v182h137v-182h-137zM455 399v182h137v-182h-137zM455 999 v182h137v-182h-137zM455 1199v182h137v-182h-137zM607 -1v182h137v-182h-137zM607 199v182h137v-182h-137zM607 399v182h137v-182h-137zM607 599v182h137v-182h-137zM607 799v182h137v-182h-137zM607 999v182h137v-182h-137zM607 1199v182h137v-182h-137zM759 -1v182h137 v-182h-137zM759 199v182h137v-182h-137zM759 399v182h137v-182h-137zM759 599v182h137v-182h-137zM759 799v182h137v-182h-137zM759 999v182h137v-182h-137zM759 1199v182h137v-182h-137zM911 399v182h137v-182h-137z" />
<glyph unicode="5" d="M-1 199v182h137v-182h-137zM-1 799v182h137v-182h-137zM-1 999v182h137v-182h-137zM-1 1199v182h137v-182h-137zM151 -1v182h137v-182h-137zM151 199v182h137v-182h-137zM151 799v182h137v-182h-137zM151 999v182h137v-182h-137zM151 1199v182h137v-182h-137zM303 -1v182 h137v-182h-137zM303 799v182h137v-182h-137zM303 1199v182h137v-182h-137zM455 -1v182h137v-182h-137zM455 799v182h137v-182h-137zM455 1199v182h137v-182h-137zM607 -1v182h137v-182h-137zM607 799v182h137v-182h-137zM607 1199v182h137v-182h-137zM759 -1v182h137v-182 h-137zM759 199v182h137v-182h-137zM759 399v182h137v-182h-137zM759 599v182h137v-182h-137zM759 799v182h137v-182h-137zM759 1199v182h137v-182h-137zM911 199v182h137v-182h-137zM911 399v182h137v-182h-137zM911 599v182h137v-182h-137z" />
<glyph unicode="6" d="M-1 199v182h137v-182h-137zM-1 399v182h137v-182h-137zM-1 599v182h137v-182h-137zM-1 799v182h137v-182h-137zM151 -1v182h137v-182h-137zM151 199v182h137v-182h-137zM151 399v182h137v-182h-137zM151 599v182h137v-182h-137zM151 799v182h137v-182h-137zM151 999v182 h137v-182h-137zM303 -1v182h137v-182h-137zM303 599v182h137v-182h-137zM303 999v182h137v-182h-137zM303 1199v182h137v-182h-137zM455 -1v182h137v-182h-137zM455 599v182h137v-182h-137zM455 1199v182h137v-182h-137zM607 -1v182h137v-182h-137zM607 599v182h137v-182 h-137zM607 1199v182h137v-182h-137zM759 -1v182h137v-182h-137zM759 199v182h137v-182h-137zM759 399v182h137v-182h-137zM759 599v182h137v-182h-137zM759 1199v182h137v-182h-137zM911 199v182h137v-182h-137zM911 399v182h137v-182h-137z" />
<glyph unicode="7" d="M-1 999v182h137v-182h-137zM-1 1199v182h137v-182h-137zM151 999v182h137v-182h-137zM151 1199v182h137v-182h-137zM303 -1v182h137v-182h-137zM303 199v182h137v-182h-137zM303 399v182h137v-182h-137zM303 1199v182h137v-182h-137zM455 -1v182h137v-182h-137zM455 199 v182h137v-182h-137zM455 399v182h137v-182h-137zM455 599v182h137v-182h-137zM455 1199v182h137v-182h-137zM607 599v182h137v-182h-137zM607 799v182h137v-182h-137zM607 1199v182h137v-182h-137zM759 799v182h137v-182h-137zM759 999v182h137v-182h-137zM759 1199v182h137 v-182h-137zM911 999v182h137v-182h-137zM911 1199v182h137v-182h-137z" />
<glyph unicode="8" d="M-1 199v182h137v-182h-137zM-1 399v182h137v-182h-137zM-1 799v182h137v-182h-137zM-1 999v182h137v-182h-137zM151 -1v182h137v-182h-137zM151 199v182h137v-182h-137zM151 399v182h137v-182h-137zM151 599v182h137v-182h-137zM151 799v182h137v-182h-137zM151 999v182 h137v-182h-137zM151 1199v182h137v-182h-137zM303 -1v182h137v-182h-137zM303 599v182h137v-182h-137zM303 799v182h137v-182h-137zM303 1199v182h137v-182h-137zM455 -1v182h137v-182h-137zM455 599v182h137v-182h-137zM455 1199v182h137v-182h-137zM607 -1v182h137v-182 h-137zM607 399v182h137v-182h-137zM607 599v182h137v-182h-137zM607 1199v182h137v-182h-137zM759 -1v182h137v-182h-137zM759 199v182h137v-182h-137zM759 399v182h137v-182h-137zM759 599v182h137v-182h-137zM759 799v182h137v-182h-137zM759 999v182h137v-182h-137z M759 1199v182h137v-182h-137zM911 199v182h137v-182h-137zM911 399v182h137v-182h-137zM911 799v182h137v-182h-137zM911 999v182h137v-182h-137z" />
<glyph unicode="9" d="M-1 799v182h137v-182h-137zM-1 999v182h137v-182h-137zM151 -1v182h137v-182h-137zM151 599v182h137v-182h-137zM151 799v182h137v-182h-137zM151 999v182h137v-182h-137zM151 1199v182h137v-182h-137zM303 -1v182h137v-182h-137zM303 599v182h137v-182h-137zM303 1199 v182h137v-182h-137zM455 -1v182h137v-182h-137zM455 599v182h137v-182h-137zM455 1199v182h137v-182h-137zM607 -1v182h137v-182h-137zM607 199v182h137v-182h-137zM607 599v182h137v-182h-137zM607 1199v182h137v-182h-137zM759 199v182h137v-182h-137zM759 399v182h137 v-182h-137zM759 599v182h137v-182h-137zM759 799v182h137v-182h-137zM759 999v182h137v-182h-137zM759 1199v182h137v-182h-137zM911 399v182h137v-182h-137zM911 599v182h137v-182h-137zM911 799v182h137v-182h-137zM911 999v182h137v-182h-137z" />
<glyph unicode=":" horiz-adv-x="1198" d="M455 199v182h137v-182h-137zM455 399v182h137v-182h-137zM455 799v182h137v-182h-137zM455 999v182h137v-182h-137zM607 199v182h137v-182h-137zM607 399v182h137v-182h-137zM607 799v182h137v-182h-137zM607 999v182h137v-182h-137z" />
<glyph unicode=";" horiz-adv-x="1201" d="M303 -1v182h137v-182h-137zM455 -1v182h137v-182h-137zM455 199v182h137v-182h-137zM455 399v182h137v-182h-137zM455 799v182h137v-182h-137zM455 999v182h137v-182h-137zM607 199v182h137v-182h-137zM607 399v182h137v-182h-137zM607 799v182h137v-182h-137zM607 999 v182h137v-182h-137z" />
<glyph unicode="&#x3c;" horiz-adv-x="1196" />
<glyph unicode="=" horiz-adv-x="1196" />
<glyph unicode="&#x3e;" horiz-adv-x="1196" />
<glyph unicode="?" horiz-adv-x="1201" d="M151 799v182h137v-182h-137zM151 999v182h137v-182h-137zM303 799v182h137v-182h-137zM303 999v182h137v-182h-137zM303 1199v182h137v-182h-137zM455 -1v182h137v-182h-137zM455 399v182h137v-182h-137zM455 1199v182h137v-182h-137zM607 -1v182h137v-182h-137zM607 399 v182h137v-182h-137zM607 599v182h137v-182h-137zM607 1199v182h137v-182h-137zM759 599v182h137v-182h-137zM759 799v182h137v-182h-137zM759 999v182h137v-182h-137zM759 1199v182h137v-182h-137zM911 799v182h137v-182h-137zM911 999v182h137v-182h-137z" />
<glyph unicode="@" horiz-adv-x="2079" />
<glyph unicode="A" d="M-1 -1v182h137v-182h-137zM-1 199v182h137v-182h-137zM-1 399v182h137v-182h-137zM-1 599v182h137v-182h-137zM-1 799v182h137v-182h-137zM151 -1v182h137v-182h-137zM151 199v182h137v-182h-137zM151 399v182h137v-182h-137zM151 599v182h137v-182h-137zM151 799v182 h137v-182h-137zM151 999v182h137v-182h-137zM303 399v182h137v-182h-137zM303 999v182h137v-182h-137zM303 1199v182h137v-182h-137zM455 399v182h137v-182h-137zM455 1199v182h137v-182h-137zM607 399v182h137v-182h-137zM607 999v182h137v-182h-137zM607 1199v182h137 v-182h-137zM759 -1v182h137v-182h-137zM759 199v182h137v-182h-137zM759 399v182h137v-182h-137zM759 599v182h137v-182h-137zM759 799v182h137v-182h-137zM759 999v182h137v-182h-137zM911 -1v182h137v-182h-137zM911 199v182h137v-182h-137zM911 399v182h137v-182h-137z M911 599v182h137v-182h-137zM911 799v182h137v-182h-137z" />
<glyph unicode="B" d="M-1 -1v182h137v-182h-137zM-1 199v182h137v-182h-137zM-1 399v182h137v-182h-137zM-1 599v182h137v-182h-137zM-1 799v182h137v-182h-137zM-1 999v182h137v-182h-137zM-1 1199v182h137v-182h-137zM151 -1v182h137v-182h-137zM151 199v182h137v-182h-137zM151 399v182h137 v-182h-137zM151 599v182h137v-182h-137zM151 799v182h137v-182h-137zM151 999v182h137v-182h-137zM151 1199v182h137v-182h-137zM303 -1v182h137v-182h-137zM303 599v182h137v-182h-137zM303 1199v182h137v-182h-137zM455 -1v182h137v-182h-137zM455 599v182h137v-182h-137z M455 1199v182h137v-182h-137zM607 -1v182h137v-182h-137zM607 599v182h137v-182h-137zM607 1199v182h137v-182h-137zM759 -1v182h137v-182h-137zM759 199v182h137v-182h-137zM759 399v182h137v-182h-137zM759 599v182h137v-182h-137zM759 799v182h137v-182h-137zM759 999 v182h137v-182h-137zM759 1199v182h137v-182h-137zM911 199v182h137v-182h-137zM911 399v182h137v-182h-137zM911 799v182h137v-182h-137zM911 999v182h137v-182h-137z" />
<glyph unicode="C" d="M-1 399v182h137v-182h-137zM-1 599v182h137v-182h-137zM-1 799v182h137v-182h-137zM151 199v182h137v-182h-137zM151 399v182h137v-182h-137zM151 599v182h137v-182h-137zM151 799v182h137v-182h-137zM151 999v182h137v-182h-137zM303 -1v182h137v-182h-137zM303 199v182 h137v-182h-137zM303 999v182h137v-182h-137zM303 1199v182h137v-182h-137zM455 -1v182h137v-182h-137zM455 1199v182h137v-182h-137zM607 -1v182h137v-182h-137zM607 1199v182h137v-182h-137zM759 -1v182h137v-182h-137zM759 199v182h137v-182h-137zM759 999v182h137v-182 h-137zM759 1199v182h137v-182h-137zM911 199v182h137v-182h-137zM911 999v182h137v-182h-137z" />
<glyph unicode="D" d="M-1 -1v182h137v-182h-137zM-1 199v182h137v-182h-137zM-1 399v182h137v-182h-137zM-1 599v182h137v-182h-137zM-1 799v182h137v-182h-137zM-1 999v182h137v-182h-137zM-1 1199v182h137v-182h-137zM151 -1v182h137v-182h-137zM151 199v182h137v-182h-137zM151 399v182h137 v-182h-137zM151 599v182h137v-182h-137zM151 799v182h137v-182h-137zM151 999v182h137v-182h-137zM151 1199v182h137v-182h-137zM303 -1v182h137v-182h-137zM303 1199v182h137v-182h-137zM455 -1v182h137v-182h-137zM455 1199v182h137v-182h-137zM607 -1v182h137v-182h-137z M607 199v182h137v-182h-137zM607 999v182h137v-182h-137zM607 1199v182h137v-182h-137zM759 199v182h137v-182h-137zM759 399v182h137v-182h-137zM759 599v182h137v-182h-137zM759 799v182h137v-182h-137zM759 999v182h137v-182h-137zM911 399v182h137v-182h-137zM911 599 v182h137v-182h-137zM911 799v182h137v-182h-137z" />
<glyph unicode="E" d="M-1 399v182h137v-182h-137zM-1 599v182h137v-182h-137zM-1 799v182h137v-182h-137zM151 199v182h137v-182h-137zM151 399v182h137v-182h-137zM151 599v182h137v-182h-137zM151 799v182h137v-182h-137zM151 999v182h137v-182h-137zM303 -1v182h137v-182h-137zM303 199v182 h137v-182h-137zM303 599v182h137v-182h-137zM303 999v182h137v-182h-137zM303 1199v182h137v-182h-137zM455 -1v182h137v-182h-137zM455 599v182h137v-182h-137zM455 1199v182h137v-182h-137zM607 -1v182h137v-182h-137zM607 599v182h137v-182h-137zM607 1199v182h137v-182 h-137zM759 -1v182h137v-182h-137zM759 199v182h137v-182h-137zM759 599v182h137v-182h-137zM759 999v182h137v-182h-137zM759 1199v182h137v-182h-137zM911 199v182h137v-182h-137zM911 999v182h137v-182h-137z" />
<glyph unicode="F" d="M-1 -1v182h137v-182h-137zM-1 199v182h137v-182h-137zM-1 399v182h137v-182h-137zM-1 599v182h137v-182h-137zM-1 799v182h137v-182h-137zM-1 999v182h137v-182h-137zM-1 1199v182h137v-182h-137zM151 -1v182h137v-182h-137zM151 199v182h137v-182h-137zM151 399v182h137 v-182h-137zM151 599v182h137v-182h-137zM151 799v182h137v-182h-137zM151 999v182h137v-182h-137zM151 1199v182h137v-182h-137zM303 599v182h137v-182h-137zM303 1199v182h137v-182h-137zM455 599v182h137v-182h-137zM455 1199v182h137v-182h-137zM607 599v182h137v-182 h-137zM607 1199v182h137v-182h-137zM759 599v182h137v-182h-137zM759 1199v182h137v-182h-137zM911 1199v182h137v-182h-137z" />
<glyph unicode="G" d="M-1 399v182h137v-182h-137zM-1 599v182h137v-182h-137zM-1 799v182h137v-182h-137zM151 199v182h137v-182h-137zM151 399v182h137v-182h-137zM151 599v182h137v-182h-137zM151 799v182h137v-182h-137zM151 999v182h137v-182h-137zM303 -1v182h137v-182h-137zM303 199v182 h137v-182h-137zM303 999v182h137v-182h-137zM303 1199v182h137v-182h-137zM455 -1v182h137v-182h-137zM455 1199v182h137v-182h-137zM607 -1v182h137v-182h-137zM607 599v182h137v-182h-137zM607 1199v182h137v-182h-137zM759 199v182h137v-182h-137zM759 399v182h137v-182 h-137zM759 599v182h137v-182h-137zM759 1199v182h137v-182h-137zM911 -1v182h137v-182h-137zM911 199v182h137v-182h-137zM911 399v182h137v-182h-137zM911 599v182h137v-182h-137zM911 1199v182h137v-182h-137z" />
<glyph unicode="H" d="M-1 -1v182h137v-182h-137zM-1 199v182h137v-182h-137zM-1 399v182h137v-182h-137zM-1 599v182h137v-182h-137zM-1 799v182h137v-182h-137zM-1 999v182h137v-182h-137zM-1 1199v182h137v-182h-137zM151 -1v182h137v-182h-137zM151 199v182h137v-182h-137zM151 399v182h137 v-182h-137zM151 599v182h137v-182h-137zM151 799v182h137v-182h-137zM151 999v182h137v-182h-137zM151 1199v182h137v-182h-137zM303 599v182h137v-182h-137zM455 599v182h137v-182h-137zM607 599v182h137v-182h-137zM759 -1v182h137v-182h-137zM759 199v182h137v-182h-137z M759 399v182h137v-182h-137zM759 599v182h137v-182h-137zM759 799v182h137v-182h-137zM759 999v182h137v-182h-137zM759 1199v182h137v-182h-137zM911 -1v182h137v-182h-137zM911 199v182h137v-182h-137zM911 399v182h137v-182h-137zM911 599v182h137v-182h-137zM911 799 v182h137v-182h-137zM911 999v182h137v-182h-137zM911 1199v182h137v-182h-137z" />
<glyph unicode="I" horiz-adv-x="1194" d="M151 -1v182h137v-182h-137zM151 1199v182h137v-182h-137zM303 -1v182h137v-182h-137zM303 1199v182h137v-182h-137zM455 -1v182h137v-182h-137zM455 199v182h137v-182h-137zM455 399v182h137v-182h-137zM455 599v182h137v-182h-137zM455 799v182h137v-182h-137zM455 999 v182h137v-182h-137zM455 1199v182h137v-182h-137zM607 -1v182h137v-182h-137zM607 199v182h137v-182h-137zM607 399v182h137v-182h-137zM607 599v182h137v-182h-137zM607 799v182h137v-182h-137zM607 999v182h137v-182h-137zM607 1199v182h137v-182h-137zM759 -1v182h137 v-182h-137zM759 1199v182h137v-182h-137zM911 -1v182h137v-182h-137zM911 1199v182h137v-182h-137z" />
<glyph unicode="J" d="M-1 199v182h137v-182h-137zM-1 399v182h137v-182h-137zM151 -1v182h137v-182h-137zM151 199v182h137v-182h-137zM151 399v182h137v-182h-137zM303 -1v182h137v-182h-137zM455 -1v182h137v-182h-137zM607 -1v182h137v-182h-137zM759 -1v182h137v-182h-137zM759 199v182 h137v-182h-137zM759 399v182h137v-182h-137zM759 599v182h137v-182h-137zM759 799v182h137v-182h-137zM759 999v182h137v-182h-137zM759 1199v182h137v-182h-137zM911 199v182h137v-182h-137zM911 399v182h137v-182h-137zM911 599v182h137v-182h-137zM911 799v182h137v-182 h-137zM911 999v182h137v-182h-137zM911 1199v182h137v-182h-137z" />
<glyph unicode="K" d="M-1 -1v182h137v-182h-137zM-1 199v182h137v-182h-137zM-1 399v182h137v-182h-137zM-1 599v182h137v-182h-137zM-1 799v182h137v-182h-137zM-1 999v182h137v-182h-137zM-1 1199v182h137v-182h-137zM151 -1v182h137v-182h-137zM151 199v182h137v-182h-137zM151 399v182h137 v-182h-137zM151 599v182h137v-182h-137zM151 799v182h137v-182h-137zM151 999v182h137v-182h-137zM151 1199v182h137v-182h-137zM303 399v182h137v-182h-137zM303 599v182h137v-182h-137zM455 199v182h137v-182h-137zM455 399v182h137v-182h-137zM455 599v182h137v-182h-137 zM455 799v182h137v-182h-137zM607 -1v182h137v-182h-137zM607 199v182h137v-182h-137zM607 399v182h137v-182h-137zM607 799v182h137v-182h-137zM607 999v182h137v-182h-137zM759 -1v182h137v-182h-137zM759 199v182h137v-182h-137zM759 999v182h137v-182h-137zM759 1199 v182h137v-182h-137zM911 -1v182h137v-182h-137zM911 1199v182h137v-182h-137z" />
<glyph unicode="L" d="M-1 -1v182h137v-182h-137zM-1 199v182h137v-182h-137zM-1 399v182h137v-182h-137zM-1 599v182h137v-182h-137zM-1 799v182h137v-182h-137zM-1 999v182h137v-182h-137zM-1 1199v182h137v-182h-137zM151 -1v182h137v-182h-137zM151 199v182h137v-182h-137zM151 399v182h137 v-182h-137zM151 599v182h137v-182h-137zM151 799v182h137v-182h-137zM151 999v182h137v-182h-137zM151 1199v182h137v-182h-137zM303 -1v182h137v-182h-137zM455 -1v182h137v-182h-137zM607 -1v182h137v-182h-137zM759 -1v182h137v-182h-137zM759 199v182h137v-182h-137z M911 -1v182h137v-182h-137zM911 199v182h137v-182h-137z" />
<glyph unicode="M" d="M-1 -1v182h137v-182h-137zM-1 199v182h137v-182h-137zM-1 399v182h137v-182h-137zM-1 599v182h137v-182h-137zM-1 799v182h137v-182h-137zM-1 999v182h137v-182h-137zM-1 1199v182h137v-182h-137zM151 -1v182h137v-182h-137zM151 199v182h137v-182h-137zM151 399v182h137 v-182h-137zM151 599v182h137v-182h-137zM151 799v182h137v-182h-137zM151 999v182h137v-182h-137zM151 1199v182h137v-182h-137zM303 599v182h137v-182h-137zM303 799v182h137v-182h-137zM303 999v182h137v-182h-137zM455 399v182h137v-182h-137zM455 599v182h137v-182h-137 zM455 799v182h137v-182h-137zM607 599v182h137v-182h-137zM607 799v182h137v-182h-137zM607 999v182h137v-182h-137zM759 -1v182h137v-182h-137zM759 199v182h137v-182h-137zM759 399v182h137v-182h-137zM759 599v182h137v-182h-137zM759 799v182h137v-182h-137zM759 999 v182h137v-182h-137zM759 1199v182h137v-182h-137zM911 -1v182h137v-182h-137zM911 199v182h137v-182h-137zM911 399v182h137v-182h-137zM911 599v182h137v-182h-137zM911 799v182h137v-182h-137zM911 999v182h137v-182h-137zM911 1199v182h137v-182h-137z" />
<glyph unicode="N" d="M-1 -1v182h137v-182h-137zM-1 199v182h137v-182h-137zM-1 399v182h137v-182h-137zM-1 599v182h137v-182h-137zM-1 799v182h137v-182h-137zM-1 999v182h137v-182h-137zM-1 1199v182h137v-182h-137zM151 -1v182h137v-182h-137zM151 199v182h137v-182h-137zM151 399v182h137 v-182h-137zM151 599v182h137v-182h-137zM151 799v182h137v-182h-137zM151 999v182h137v-182h-137zM151 1199v182h137v-182h-137zM303 199v182h137v-182h-137zM303 399v182h137v-182h-137zM303 599v182h137v-182h-137zM455 399v182h137v-182h-137zM455 599v182h137v-182h-137 zM455 799v182h137v-182h-137zM607 599v182h137v-182h-137zM607 799v182h137v-182h-137zM607 999v182h137v-182h-137zM759 -1v182h137v-182h-137zM759 199v182h137v-182h-137zM759 399v182h137v-182h-137zM759 599v182h137v-182h-137zM759 799v182h137v-182h-137zM759 999 v182h137v-182h-137zM759 1199v182h137v-182h-137zM911 -1v182h137v-182h-137zM911 199v182h137v-182h-137zM911 399v182h137v-182h-137zM911 599v182h137v-182h-137zM911 799v182h137v-182h-137zM911 999v182h137v-182h-137zM911 1199v182h137v-182h-137z" />
<glyph unicode="O" d="M-1 399v182h137v-182h-137zM-1 599v182h137v-182h-137zM-1 799v182h137v-182h-137zM151 199v182h137v-182h-137zM151 399v182h137v-182h-137zM151 599v182h137v-182h-137zM151 799v182h137v-182h-137zM151 999v182h137v-182h-137zM303 -1v182h137v-182h-137zM303 199v182 h137v-182h-137zM303 599v182h137v-182h-137zM303 1199v182h137v-182h-137zM455 -1v182h137v-182h-137zM455 599v182h137v-182h-137zM455 1199v182h137v-182h-137zM607 -1v182h137v-182h-137zM607 599v182h137v-182h-137zM607 999v182h137v-182h-137zM607 1199v182h137v-182 h-137zM759 199v182h137v-182h-137zM759 399v182h137v-182h-137zM759 599v182h137v-182h-137zM759 799v182h137v-182h-137zM759 999v182h137v-182h-137zM911 399v182h137v-182h-137zM911 599v182h137v-182h-137zM911 799v182h137v-182h-137z" />
<glyph unicode="P" d="M-1 -1v182h137v-182h-137zM-1 199v182h137v-182h-137zM-1 399v182h137v-182h-137zM-1 599v182h137v-182h-137zM-1 799v182h137v-182h-137zM-1 999v182h137v-182h-137zM-1 1199v182h137v-182h-137zM151 -1v182h137v-182h-137zM151 199v182h137v-182h-137zM151 399v182h137 v-182h-137zM151 599v182h137v-182h-137zM151 799v182h137v-182h-137zM151 999v182h137v-182h-137zM151 1199v182h137v-182h-137zM303 399v182h137v-182h-137zM303 1199v182h137v-182h-137zM455 399v182h137v-182h-137zM455 1199v182h137v-182h-137zM607 399v182h137v-182 h-137zM607 1199v182h137v-182h-137zM759 399v182h137v-182h-137zM759 599v182h137v-182h-137zM759 799v182h137v-182h-137zM759 999v182h137v-182h-137zM759 1199v182h137v-182h-137zM911 599v182h137v-182h-137zM911 799v182h137v-182h-137zM911 999v182h137v-182h-137z " />
<glyph unicode="Q" d="M-1 199v182h137v-182h-137zM-1 399v182h137v-182h-137zM-1 599v182h137v-182h-137zM-1 799v182h137v-182h-137zM-1 999v182h137v-182h-137zM151 -1v182h137v-182h-137zM151 199v182h137v-182h-137zM151 399v182h137v-182h-137zM151 599v182h137v-182h-137zM151 799v182 h137v-182h-137zM151 999v182h137v-182h-137zM151 1199v182h137v-182h-137zM303 -1v182h137v-182h-137zM303 1199v182h137v-182h-137zM455 -1v182h137v-182h-137zM455 1199v182h137v-182h-137zM607 199v182h137v-182h-137zM607 1199v182h137v-182h-137zM759 -1v182h137v-182 h-137zM759 199v182h137v-182h-137zM759 399v182h137v-182h-137zM759 599v182h137v-182h-137zM759 799v182h137v-182h-137zM759 999v182h137v-182h-137zM759 1199v182h137v-182h-137zM911 -1v182h137v-182h-137zM911 399v182h137v-182h-137zM911 599v182h137v-182h-137z M911 799v182h137v-182h-137zM911 999v182h137v-182h-137z" />
<glyph unicode="R" d="M-1 -1v182h137v-182h-137zM-1 599v182h137v-182h-137zM-1 799v182h137v-182h-137zM-1 999v182h137v-182h-137zM151 -1v182h137v-182h-137zM151 199v182h137v-182h-137zM151 599v182h137v-182h-137zM151 799v182h137v-182h-137zM151 999v182h137v-182h-137zM151 1199v182 h137v-182h-137zM303 -1v182h137v-182h-137zM303 199v182h137v-182h-137zM303 399v182h137v-182h-137zM303 599v182h137v-182h-137zM303 1199v182h137v-182h-137zM455 199v182h137v-182h-137zM455 399v182h137v-182h-137zM455 1199v182h137v-182h-137zM607 399v182h137v-182 h-137zM607 1199v182h137v-182h-137zM759 -1v182h137v-182h-137zM759 199v182h137v-182h-137zM759 399v182h137v-182h-137zM759 599v182h137v-182h-137zM759 799v182h137v-182h-137zM759 999v182h137v-182h-137zM759 1199v182h137v-182h-137zM911 -1v182h137v-182h-137z M911 199v182h137v-182h-137zM911 399v182h137v-182h-137zM911 599v182h137v-182h-137zM911 799v182h137v-182h-137zM911 999v182h137v-182h-137zM911 1199v182h137v-182h-137z" />
<glyph unicode="S" d="M-1 199v182h137v-182h-137zM-1 799v182h137v-182h-137zM-1 999v182h137v-182h-137zM151 -1v182h137v-182h-137zM151 199v182h137v-182h-137zM151 599v182h137v-182h-137zM151 799v182h137v-182h-137zM151 999v182h137v-182h-137zM151 1199v182h137v-182h-137zM303 -1v182 h137v-182h-137zM303 599v182h137v-182h-137zM303 1199v182h137v-182h-137zM455 -1v182h137v-182h-137zM455 599v182h137v-182h-137zM455 1199v182h137v-182h-137zM607 -1v182h137v-182h-137zM607 599v182h137v-182h-137zM607 1199v182h137v-182h-137zM759 -1v182h137v-182 h-137zM759 199v182h137v-182h-137zM759 399v182h137v-182h-137zM759 599v182h137v-182h-137zM759 999v182h137v-182h-137zM759 1199v182h137v-182h-137zM911 199v182h137v-182h-137zM911 399v182h137v-182h-137zM911 999v182h137v-182h-137z" />
<glyph unicode="T" horiz-adv-x="1194" d="M151 1199v182h137v-182h-137zM303 1199v182h137v-182h-137zM455 -1v182h137v-182h-137zM455 199v182h137v-182h-137zM455 399v182h137v-182h-137zM455 599v182h137v-182h-137zM455 799v182h137v-182h-137zM455 999v182h137v-182h-137zM455 1199v182h137v-182h-137z M607 -1v182h137v-182h-137zM607 199v182h137v-182h-137zM607 399v182h137v-182h-137zM607 599v182h137v-182h-137zM607 799v182h137v-182h-137zM607 999v182h137v-182h-137zM607 1199v182h137v-182h-137zM759 1199v182h137v-182h-137zM911 1199v182h137v-182h-137z" />
<glyph unicode="U" d="M-1 199v182h137v-182h-137zM-1 399v182h137v-182h-137zM-1 599v182h137v-182h-137zM-1 799v182h137v-182h-137zM-1 999v182h137v-182h-137zM-1 1199v182h137v-182h-137zM151 -1v182h137v-182h-137zM151 199v182h137v-182h-137zM151 399v182h137v-182h-137zM151 599v182 h137v-182h-137zM151 799v182h137v-182h-137zM151 999v182h137v-182h-137zM151 1199v182h137v-182h-137zM303 -1v182h137v-182h-137zM455 -1v182h137v-182h-137zM607 -1v182h137v-182h-137zM759 -1v182h137v-182h-137zM759 199v182h137v-182h-137zM759 399v182h137v-182h-137 zM759 599v182h137v-182h-137zM759 799v182h137v-182h-137zM759 999v182h137v-182h-137zM759 1199v182h137v-182h-137zM911 199v182h137v-182h-137zM911 399v182h137v-182h-137zM911 599v182h137v-182h-137zM911 799v182h137v-182h-137zM911 999v182h137v-182h-137zM911 1199 v182h137v-182h-137z" />
<glyph unicode="V" d="M-1 599v182h137v-182h-137zM-1 799v182h137v-182h-137zM-1 999v182h137v-182h-137zM-1 1199v182h137v-182h-137zM151 399v182h137v-182h-137zM151 599v182h137v-182h-137zM151 799v182h137v-182h-137zM151 999v182h137v-182h-137zM151 1199v182h137v-182h-137zM303 199 v182h137v-182h-137zM303 399v182h137v-182h-137zM455 -1v182h137v-182h-137zM455 199v182h137v-182h-137zM607 199v182h137v-182h-137zM607 399v182h137v-182h-137zM759 399v182h137v-182h-137zM759 599v182h137v-182h-137zM759 799v182h137v-182h-137zM759 999v182h137 v-182h-137zM759 1199v182h137v-182h-137zM911 599v182h137v-182h-137zM911 799v182h137v-182h-137zM911 999v182h137v-182h-137zM911 1199v182h137v-182h-137z" />
<glyph unicode="W" d="M-1 -1v182h137v-182h-137zM-1 199v182h137v-182h-137zM-1 399v182h137v-182h-137zM-1 599v182h137v-182h-137zM-1 799v182h137v-182h-137zM-1 999v182h137v-182h-137zM-1 1199v182h137v-182h-137zM151 -1v182h137v-182h-137zM151 199v182h137v-182h-137zM151 399v182h137 v-182h-137zM151 599v182h137v-182h-137zM151 799v182h137v-182h-137zM151 999v182h137v-182h-137zM151 1199v182h137v-182h-137zM303 199v182h137v-182h-137zM303 399v182h137v-182h-137zM455 399v182h137v-182h-137zM455 599v182h137v-182h-137zM607 199v182h137v-182h-137 zM607 399v182h137v-182h-137zM759 -1v182h137v-182h-137zM759 199v182h137v-182h-137zM759 399v182h137v-182h-137zM759 599v182h137v-182h-137zM759 799v182h137v-182h-137zM759 999v182h137v-182h-137zM759 1199v182h137v-182h-137zM911 -1v182h137v-182h-137zM911 199 v182h137v-182h-137zM911 399v182h137v-182h-137zM911 599v182h137v-182h-137zM911 799v182h137v-182h-137zM911 999v182h137v-182h-137zM911 1199v182h137v-182h-137z" />
<glyph unicode="X" d="M-1 -1v182h137v-182h-137zM-1 199v182h137v-182h-137zM-1 999v182h137v-182h-137zM-1 1199v182h137v-182h-137zM151 -1v182h137v-182h-137zM151 199v182h137v-182h-137zM151 399v182h137v-182h-137zM151 799v182h137v-182h-137zM151 999v182h137v-182h-137zM151 1199v182 h137v-182h-137zM303 199v182h137v-182h-137zM303 399v182h137v-182h-137zM303 599v182h137v-182h-137zM303 799v182h137v-182h-137zM303 999v182h137v-182h-137zM455 399v182h137v-182h-137zM455 599v182h137v-182h-137zM455 799v182h137v-182h-137zM607 199v182h137v-182 h-137zM607 399v182h137v-182h-137zM607 599v182h137v-182h-137zM607 799v182h137v-182h-137zM607 999v182h137v-182h-137zM759 -1v182h137v-182h-137zM759 199v182h137v-182h-137zM759 399v182h137v-182h-137zM759 799v182h137v-182h-137zM759 999v182h137v-182h-137z M759 1199v182h137v-182h-137zM911 -1v182h137v-182h-137zM911 199v182h137v-182h-137zM911 999v182h137v-182h-137zM911 1199v182h137v-182h-137z" />
<glyph unicode="Y" horiz-adv-x="1194" d="M151 799v182h137v-182h-137zM151 999v182h137v-182h-137zM151 1199v182h137v-182h-137zM303 599v182h137v-182h-137zM303 799v182h137v-182h-137zM303 999v182h137v-182h-137zM303 1199v182h137v-182h-137zM455 -1v182h137v-182h-137zM455 199v182h137v-182h-137z M455 399v182h137v-182h-137zM455 599v182h137v-182h-137zM607 -1v182h137v-182h-137zM607 199v182h137v-182h-137zM607 399v182h137v-182h-137zM607 599v182h137v-182h-137zM759 599v182h137v-182h-137zM759 799v182h137v-182h-137zM759 999v182h137v-182h-137zM759 1199 v182h137v-182h-137zM911 799v182h137v-182h-137zM911 999v182h137v-182h-137zM911 1199v182h137v-182h-137z" />
<glyph unicode="Z" d="M-1 -1v182h137v-182h-137zM-1 199v182h137v-182h-137zM-1 999v182h137v-182h-137zM-1 1199v182h137v-182h-137zM151 -1v182h137v-182h-137zM151 199v182h137v-182h-137zM151 399v182h137v-182h-137zM151 999v182h137v-182h-137zM151 1199v182h137v-182h-137zM303 -1v182 h137v-182h-137zM303 199v182h137v-182h-137zM303 399v182h137v-182h-137zM303 599v182h137v-182h-137zM303 1199v182h137v-182h-137zM455 -1v182h137v-182h-137zM455 399v182h137v-182h-137zM455 599v182h137v-182h-137zM455 799v182h137v-182h-137zM455 1199v182h137v-182 h-137zM607 -1v182h137v-182h-137zM607 599v182h137v-182h-137zM607 799v182h137v-182h-137zM607 999v182h137v-182h-137zM607 1199v182h137v-182h-137zM759 -1v182h137v-182h-137zM759 199v182h137v-182h-137zM759 799v182h137v-182h-137zM759 999v182h137v-182h-137z M759 1199v182h137v-182h-137zM911 -1v182h137v-182h-137zM911 199v182h137v-182h-137zM911 999v182h137v-182h-137zM911 1199v182h137v-182h-137z" />
<glyph unicode="[" horiz-adv-x="569" />
<glyph unicode="\" horiz-adv-x="569" />
<glyph unicode="]" horiz-adv-x="569" />
<glyph unicode="^" horiz-adv-x="961" />
<glyph unicode="_" horiz-adv-x="1139" />
<glyph unicode="`" d="M-1 -1v182h137v-182h-137zM-1 199v182h137v-182h-137zM-1 399v182h137v-182h-137zM-1 599v182h137v-182h-137zM-1 799v182h137v-182h-137zM-1 999v182h137v-182h-137zM-1 1199v182h137v-182h-137zM151 -1v182h137v-182h-137zM151 199v182h137v-182h-137zM151 399v182h137 v-182h-137zM151 599v182h137v-182h-137zM151 799v182h137v-182h-137zM151 999v182h137v-182h-137zM151 1199v182h137v-182h-137zM303 -1v182h137v-182h-137zM303 199v182h137v-182h-137zM303 399v182h137v-182h-137zM303 599v182h137v-182h-137zM303 799v182h137v-182h-137z M303 999v182h137v-182h-137zM303 1199v182h137v-182h-137zM455 -1v182h137v-182h-137zM455 199v182h137v-182h-137zM455 399v182h137v-182h-137zM455 599v182h137v-182h-137zM455 799v182h137v-182h-137zM455 999v182h137v-182h-137zM455 1199v182h137v-182h-137zM607 -1 v182h137v-182h-137zM607 199v182h137v-182h-137zM607 399v182h137v-182h-137zM607 599v182h137v-182h-137zM607 799v182h137v-182h-137zM607 999v182h137v-182h-137zM607 1199v182h137v-182h-137zM759 -1v182h137v-182h-137zM759 199v182h137v-182h-137zM759 399v182h137 v-182h-137zM759 599v182h137v-182h-137zM759 799v182h137v-182h-137zM759 999v182h137v-182h-137zM759 1199v182h137v-182h-137zM911 -1v182h137v-182h-137zM911 199v182h137v-182h-137zM911 399v182h137v-182h-137zM911 599v182h137v-182h-137zM911 799v182h137v-182h-137z M911 999v182h137v-182h-137zM911 1199v182h137v-182h-137z" />
<glyph unicode="a" d="M-1 -1v182h137v-182h-137zM-1 199v182h137v-182h-137zM-1 399v182h137v-182h-137zM-1 599v182h137v-182h-137zM-1 799v182h137v-182h-137zM151 -1v182h137v-182h-137zM151 199v182h137v-182h-137zM151 399v182h137v-182h-137zM151 599v182h137v-182h-137zM151 799v182 h137v-182h-137zM151 999v182h137v-182h-137zM303 399v182h137v-182h-137zM303 999v182h137v-182h-137zM303 1199v182h137v-182h-137zM455 399v182h137v-182h-137zM455 1199v182h137v-182h-137zM607 399v182h137v-182h-137zM607 999v182h137v-182h-137zM607 1199v182h137 v-182h-137zM759 -1v182h137v-182h-137zM759 199v182h137v-182h-137zM759 399v182h137v-182h-137zM759 599v182h137v-182h-137zM759 799v182h137v-182h-137zM759 999v182h137v-182h-137zM911 -1v182h137v-182h-137zM911 199v182h137v-182h-137zM911 399v182h137v-182h-137z M911 599v182h137v-182h-137zM911 799v182h137v-182h-137z" />
<glyph unicode="b" d="M-1 -1v182h137v-182h-137zM-1 199v182h137v-182h-137zM-1 399v182h137v-182h-137zM-1 599v182h137v-182h-137zM-1 799v182h137v-182h-137zM-1 999v182h137v-182h-137zM-1 1199v182h137v-182h-137zM151 -1v182h137v-182h-137zM151 199v182h137v-182h-137zM151 399v182h137 v-182h-137zM151 599v182h137v-182h-137zM151 799v182h137v-182h-137zM151 999v182h137v-182h-137zM151 1199v182h137v-182h-137zM303 -1v182h137v-182h-137zM303 599v182h137v-182h-137zM303 1199v182h137v-182h-137zM455 -1v182h137v-182h-137zM455 599v182h137v-182h-137z M455 1199v182h137v-182h-137zM607 -1v182h137v-182h-137zM607 599v182h137v-182h-137zM607 1199v182h137v-182h-137zM759 -1v182h137v-182h-137zM759 199v182h137v-182h-137zM759 399v182h137v-182h-137zM759 599v182h137v-182h-137zM759 799v182h137v-182h-137zM759 999 v182h137v-182h-137zM759 1199v182h137v-182h-137zM911 199v182h137v-182h-137zM911 399v182h137v-182h-137zM911 799v182h137v-182h-137zM911 999v182h137v-182h-137z" />
<glyph unicode="c" d="M-1 399v182h137v-182h-137zM-1 599v182h137v-182h-137zM-1 799v182h137v-182h-137zM151 199v182h137v-182h-137zM151 399v182h137v-182h-137zM151 599v182h137v-182h-137zM151 799v182h137v-182h-137zM151 999v182h137v-182h-137zM303 -1v182h137v-182h-137zM303 199v182 h137v-182h-137zM303 999v182h137v-182h-137zM303 1199v182h137v-182h-137zM455 -1v182h137v-182h-137zM455 1199v182h137v-182h-137zM607 -1v182h137v-182h-137zM607 1199v182h137v-182h-137zM759 -1v182h137v-182h-137zM759 199v182h137v-182h-137zM759 999v182h137v-182 h-137zM759 1199v182h137v-182h-137zM911 199v182h137v-182h-137zM911 999v182h137v-182h-137z" />
<glyph unicode="d" d="M-1 -1v182h137v-182h-137zM-1 199v182h137v-182h-137zM-1 399v182h137v-182h-137zM-1 599v182h137v-182h-137zM-1 799v182h137v-182h-137zM-1 999v182h137v-182h-137zM-1 1199v182h137v-182h-137zM151 -1v182h137v-182h-137zM151 199v182h137v-182h-137zM151 399v182h137 v-182h-137zM151 599v182h137v-182h-137zM151 799v182h137v-182h-137zM151 999v182h137v-182h-137zM151 1199v182h137v-182h-137zM303 -1v182h137v-182h-137zM303 1199v182h137v-182h-137zM455 -1v182h137v-182h-137zM455 1199v182h137v-182h-137zM607 -1v182h137v-182h-137z M607 199v182h137v-182h-137zM607 999v182h137v-182h-137zM607 1199v182h137v-182h-137zM759 199v182h137v-182h-137zM759 399v182h137v-182h-137zM759 599v182h137v-182h-137zM759 799v182h137v-182h-137zM759 999v182h137v-182h-137zM911 399v182h137v-182h-137zM911 599 v182h137v-182h-137zM911 799v182h137v-182h-137z" />
<glyph unicode="e" d="M-1 -1v182h137v-182h-137zM-1 199v182h137v-182h-137zM-1 399v182h137v-182h-137zM-1 599v182h137v-182h-137zM-1 799v182h137v-182h-137zM-1 999v182h137v-182h-137zM-1 1199v182h137v-182h-137zM151 -1v182h137v-182h-137zM151 199v182h137v-182h-137zM151 399v182h137 v-182h-137zM151 599v182h137v-182h-137zM151 799v182h137v-182h-137zM151 999v182h137v-182h-137zM151 1199v182h137v-182h-137zM303 -1v182h137v-182h-137zM303 599v182h137v-182h-137zM303 1199v182h137v-182h-137zM455 -1v182h137v-182h-137zM455 599v182h137v-182h-137z M455 1199v182h137v-182h-137zM607 -1v182h137v-182h-137zM607 599v182h137v-182h-137zM607 1199v182h137v-182h-137zM759 -1v182h137v-182h-137zM759 599v182h137v-182h-137zM759 1199v182h137v-182h-137zM911 -1v182h137v-182h-137zM911 1199v182h137v-182h-137z" />
<glyph unicode="f" d="M-1 -1v182h137v-182h-137zM-1 199v182h137v-182h-137zM-1 399v182h137v-182h-137zM-1 599v182h137v-182h-137zM-1 799v182h137v-182h-137zM-1 999v182h137v-182h-137zM-1 1199v182h137v-182h-137zM151 -1v182h137v-182h-137zM151 199v182h137v-182h-137zM151 399v182h137 v-182h-137zM151 599v182h137v-182h-137zM151 799v182h137v-182h-137zM151 999v182h137v-182h-137zM151 1199v182h137v-182h-137zM303 599v182h137v-182h-137zM303 1199v182h137v-182h-137zM455 599v182h137v-182h-137zM455 1199v182h137v-182h-137zM607 599v182h137v-182 h-137zM607 1199v182h137v-182h-137zM759 599v182h137v-182h-137zM759 1199v182h137v-182h-137zM911 1199v182h137v-182h-137z" />
<glyph unicode="g" d="M-1 399v182h137v-182h-137zM-1 599v182h137v-182h-137zM-1 799v182h137v-182h-137zM151 199v182h137v-182h-137zM151 399v182h137v-182h-137zM151 599v182h137v-182h-137zM151 799v182h137v-182h-137zM151 999v182h137v-182h-137zM303 -1v182h137v-182h-137zM303 199v182 h137v-182h-137zM303 999v182h137v-182h-137zM303 1199v182h137v-182h-137zM455 -1v182h137v-182h-137zM455 1199v182h137v-182h-137zM607 -1v182h137v-182h-137zM607 599v182h137v-182h-137zM607 1199v182h137v-182h-137zM759 199v182h137v-182h-137zM759 399v182h137v-182 h-137zM759 599v182h137v-182h-137zM759 1199v182h137v-182h-137zM911 -1v182h137v-182h-137zM911 199v182h137v-182h-137zM911 399v182h137v-182h-137zM911 599v182h137v-182h-137zM911 1199v182h137v-182h-137z" />
<glyph unicode="h" d="M-1 -1v182h137v-182h-137zM-1 199v182h137v-182h-137zM-1 399v182h137v-182h-137zM-1 599v182h137v-182h-137zM-1 799v182h137v-182h-137zM-1 999v182h137v-182h-137zM-1 1199v182h137v-182h-137zM151 -1v182h137v-182h-137zM151 199v182h137v-182h-137zM151 399v182h137 v-182h-137zM151 599v182h137v-182h-137zM151 799v182h137v-182h-137zM151 999v182h137v-182h-137zM151 1199v182h137v-182h-137zM303 599v182h137v-182h-137zM455 599v182h137v-182h-137zM607 599v182h137v-182h-137zM759 -1v182h137v-182h-137zM759 199v182h137v-182h-137z M759 399v182h137v-182h-137zM759 599v182h137v-182h-137zM759 799v182h137v-182h-137zM759 999v182h137v-182h-137zM759 1199v182h137v-182h-137zM911 -1v182h137v-182h-137zM911 199v182h137v-182h-137zM911 399v182h137v-182h-137zM911 599v182h137v-182h-137zM911 799 v182h137v-182h-137zM911 999v182h137v-182h-137zM911 1199v182h137v-182h-137z" />
<glyph unicode="i" horiz-adv-x="1194" d="M151 -1v182h137v-182h-137zM151 1199v182h137v-182h-137zM303 -1v182h137v-182h-137zM303 1199v182h137v-182h-137zM455 -1v182h137v-182h-137zM455 199v182h137v-182h-137zM455 399v182h137v-182h-137zM455 599v182h137v-182h-137zM455 799v182h137v-182h-137zM455 999 v182h137v-182h-137zM455 1199v182h137v-182h-137zM607 -1v182h137v-182h-137zM607 199v182h137v-182h-137zM607 399v182h137v-182h-137zM607 599v182h137v-182h-137zM607 799v182h137v-182h-137zM607 999v182h137v-182h-137zM607 1199v182h137v-182h-137zM759 -1v182h137 v-182h-137zM759 1199v182h137v-182h-137zM911 -1v182h137v-182h-137zM911 1199v182h137v-182h-137z" />
<glyph unicode="j" d="M-1 199v182h137v-182h-137zM-1 399v182h137v-182h-137zM151 -1v182h137v-182h-137zM151 199v182h137v-182h-137zM151 399v182h137v-182h-137zM303 -1v182h137v-182h-137zM455 -1v182h137v-182h-137zM607 -1v182h137v-182h-137zM759 -1v182h137v-182h-137zM759 199v182 h137v-182h-137zM759 399v182h137v-182h-137zM759 599v182h137v-182h-137zM759 799v182h137v-182h-137zM759 999v182h137v-182h-137zM759 1199v182h137v-182h-137zM911 199v182h137v-182h-137zM911 399v182h137v-182h-137zM911 599v182h137v-182h-137zM911 799v182h137v-182 h-137zM911 999v182h137v-182h-137zM911 1199v182h137v-182h-137z" />
<glyph unicode="k" d="M-1 -1v182h137v-182h-137zM-1 199v182h137v-182h-137zM-1 399v182h137v-182h-137zM-1 599v182h137v-182h-137zM-1 799v182h137v-182h-137zM-1 999v182h137v-182h-137zM-1 1199v182h137v-182h-137zM151 -1v182h137v-182h-137zM151 199v182h137v-182h-137zM151 399v182h137 v-182h-137zM151 599v182h137v-182h-137zM151 799v182h137v-182h-137zM151 999v182h137v-182h-137zM151 1199v182h137v-182h-137zM303 399v182h137v-182h-137zM303 599v182h137v-182h-137zM455 199v182h137v-182h-137zM455 399v182h137v-182h-137zM455 599v182h137v-182h-137 zM455 799v182h137v-182h-137zM607 -1v182h137v-182h-137zM607 199v182h137v-182h-137zM607 399v182h137v-182h-137zM607 799v182h137v-182h-137zM607 999v182h137v-182h-137zM759 -1v182h137v-182h-137zM759 199v182h137v-182h-137zM759 999v182h137v-182h-137zM759 1199 v182h137v-182h-137zM911 -1v182h137v-182h-137zM911 1199v182h137v-182h-137z" />
<glyph unicode="l" d="M-1 -1v182h137v-182h-137zM-1 199v182h137v-182h-137zM-1 399v182h137v-182h-137zM-1 599v182h137v-182h-137zM-1 799v182h137v-182h-137zM-1 999v182h137v-182h-137zM-1 1199v182h137v-182h-137zM151 -1v182h137v-182h-137zM151 199v182h137v-182h-137zM151 399v182h137 v-182h-137zM151 599v182h137v-182h-137zM151 799v182h137v-182h-137zM151 999v182h137v-182h-137zM151 1199v182h137v-182h-137zM303 -1v182h137v-182h-137zM455 -1v182h137v-182h-137zM607 -1v182h137v-182h-137zM759 -1v182h137v-182h-137zM759 199v182h137v-182h-137z M911 -1v182h137v-182h-137zM911 199v182h137v-182h-137z" />
<glyph unicode="m" d="M-1 -1v182h137v-182h-137zM-1 199v182h137v-182h-137zM-1 399v182h137v-182h-137zM-1 599v182h137v-182h-137zM-1 799v182h137v-182h-137zM-1 999v182h137v-182h-137zM-1 1199v182h137v-182h-137zM151 -1v182h137v-182h-137zM151 199v182h137v-182h-137zM151 399v182h137 v-182h-137zM151 599v182h137v-182h-137zM151 799v182h137v-182h-137zM151 999v182h137v-182h-137zM151 1199v182h137v-182h-137zM303 599v182h137v-182h-137zM303 799v182h137v-182h-137zM303 999v182h137v-182h-137zM455 399v182h137v-182h-137zM455 599v182h137v-182h-137 zM455 799v182h137v-182h-137zM607 599v182h137v-182h-137zM607 799v182h137v-182h-137zM607 999v182h137v-182h-137zM759 -1v182h137v-182h-137zM759 199v182h137v-182h-137zM759 399v182h137v-182h-137zM759 599v182h137v-182h-137zM759 799v182h137v-182h-137zM759 999 v182h137v-182h-137zM759 1199v182h137v-182h-137zM911 -1v182h137v-182h-137zM911 199v182h137v-182h-137zM911 399v182h137v-182h-137zM911 599v182h137v-182h-137zM911 799v182h137v-182h-137zM911 999v182h137v-182h-137zM911 1199v182h137v-182h-137z" />
<glyph unicode="n" d="M-1 -1v182h137v-182h-137zM-1 199v182h137v-182h-137zM-1 399v182h137v-182h-137zM-1 599v182h137v-182h-137zM-1 799v182h137v-182h-137zM-1 999v182h137v-182h-137zM-1 1199v182h137v-182h-137zM151 -1v182h137v-182h-137zM151 199v182h137v-182h-137zM151 399v182h137 v-182h-137zM151 599v182h137v-182h-137zM151 799v182h137v-182h-137zM151 999v182h137v-182h-137zM151 1199v182h137v-182h-137zM303 599v182h137v-182h-137zM303 799v182h137v-182h-137zM303 999v182h137v-182h-137zM455 399v182h137v-182h-137zM455 599v182h137v-182h-137 zM455 799v182h137v-182h-137zM607 199v182h137v-182h-137zM607 399v182h137v-182h-137zM607 599v182h137v-182h-137zM759 -1v182h137v-182h-137zM759 199v182h137v-182h-137zM759 399v182h137v-182h-137zM759 599v182h137v-182h-137zM759 799v182h137v-182h-137zM759 999 v182h137v-182h-137zM759 1199v182h137v-182h-137zM911 -1v182h137v-182h-137zM911 199v182h137v-182h-137zM911 399v182h137v-182h-137zM911 599v182h137v-182h-137zM911 799v182h137v-182h-137zM911 999v182h137v-182h-137zM911 1199v182h137v-182h-137z" />
<glyph unicode="o" d="M-1 199v182h137v-182h-137zM-1 399v182h137v-182h-137zM-1 599v182h137v-182h-137zM-1 799v182h137v-182h-137zM-1 999v182h137v-182h-137zM151 -1v182h137v-182h-137zM151 199v182h137v-182h-137zM151 399v182h137v-182h-137zM151 599v182h137v-182h-137zM151 799v182 h137v-182h-137zM151 999v182h137v-182h-137zM151 1199v182h137v-182h-137zM303 -1v182h137v-182h-137zM303 1199v182h137v-182h-137zM455 -1v182h137v-182h-137zM455 1199v182h137v-182h-137zM607 -1v182h137v-182h-137zM607 1199v182h137v-182h-137zM759 -1v182h137v-182 h-137zM759 199v182h137v-182h-137zM759 399v182h137v-182h-137zM759 599v182h137v-182h-137zM759 799v182h137v-182h-137zM759 999v182h137v-182h-137zM759 1199v182h137v-182h-137zM911 199v182h137v-182h-137zM911 399v182h137v-182h-137zM911 599v182h137v-182h-137z M911 799v182h137v-182h-137zM911 999v182h137v-182h-137z" />
<glyph unicode="p" d="M-1 -1v182h137v-182h-137zM-1 199v182h137v-182h-137zM-1 399v182h137v-182h-137zM-1 599v182h137v-182h-137zM-1 799v182h137v-182h-137zM-1 999v182h137v-182h-137zM-1 1199v182h137v-182h-137zM151 -1v182h137v-182h-137zM151 199v182h137v-182h-137zM151 399v182h137 v-182h-137zM151 599v182h137v-182h-137zM151 799v182h137v-182h-137zM151 999v182h137v-182h-137zM151 1199v182h137v-182h-137zM303 399v182h137v-182h-137zM303 1199v182h137v-182h-137zM455 399v182h137v-182h-137zM455 1199v182h137v-182h-137zM607 399v182h137v-182 h-137zM607 1199v182h137v-182h-137zM759 399v182h137v-182h-137zM759 599v182h137v-182h-137zM759 799v182h137v-182h-137zM759 999v182h137v-182h-137zM759 1199v182h137v-182h-137zM911 599v182h137v-182h-137zM911 799v182h137v-182h-137zM911 999v182h137v-182h-137z " />
<glyph unicode="q" d="M-1 199v182h137v-182h-137zM-1 399v182h137v-182h-137zM-1 599v182h137v-182h-137zM-1 799v182h137v-182h-137zM-1 999v182h137v-182h-137zM151 -1v182h137v-182h-137zM151 199v182h137v-182h-137zM151 399v182h137v-182h-137zM151 599v182h137v-182h-137zM151 799v182 h137v-182h-137zM151 999v182h137v-182h-137zM151 1199v182h137v-182h-137zM303 -1v182h137v-182h-137zM303 1199v182h137v-182h-137zM455 -1v182h137v-182h-137zM455 1199v182h137v-182h-137zM607 199v182h137v-182h-137zM607 1199v182h137v-182h-137zM759 -1v182h137v-182 h-137zM759 199v182h137v-182h-137zM759 399v182h137v-182h-137zM759 599v182h137v-182h-137zM759 799v182h137v-182h-137zM759 999v182h137v-182h-137zM759 1199v182h137v-182h-137zM911 -1v182h137v-182h-137zM911 399v182h137v-182h-137zM911 599v182h137v-182h-137z M911 799v182h137v-182h-137zM911 999v182h137v-182h-137z" />
<glyph unicode="r" d="M-1 -1v182h137v-182h-137zM-1 199v182h137v-182h-137zM-1 399v182h137v-182h-137zM-1 599v182h137v-182h-137zM-1 799v182h137v-182h-137zM-1 999v182h137v-182h-137zM-1 1199v182h137v-182h-137zM151 -1v182h137v-182h-137zM151 199v182h137v-182h-137zM151 399v182h137 v-182h-137zM151 599v182h137v-182h-137zM151 799v182h137v-182h-137zM151 999v182h137v-182h-137zM151 1199v182h137v-182h-137zM303 399v182h137v-182h-137zM303 1199v182h137v-182h-137zM455 199v182h137v-182h-137zM455 399v182h137v-182h-137zM455 1199v182h137v-182 h-137zM607 -1v182h137v-182h-137zM607 199v182h137v-182h-137zM607 399v182h137v-182h-137zM607 599v182h137v-182h-137zM607 1199v182h137v-182h-137zM759 -1v182h137v-182h-137zM759 199v182h137v-182h-137zM759 599v182h137v-182h-137zM759 799v182h137v-182h-137z M759 999v182h137v-182h-137zM759 1199v182h137v-182h-137zM911 -1v182h137v-182h-137zM911 599v182h137v-182h-137zM911 799v182h137v-182h-137zM911 999v182h137v-182h-137z" />
<glyph unicode="s" d="M-1 199v182h137v-182h-137zM-1 799v182h137v-182h-137zM-1 999v182h137v-182h-137zM151 -1v182h137v-182h-137zM151 199v182h137v-182h-137zM151 599v182h137v-182h-137zM151 799v182h137v-182h-137zM151 999v182h137v-182h-137zM151 1199v182h137v-182h-137zM303 -1v182 h137v-182h-137zM303 599v182h137v-182h-137zM303 1199v182h137v-182h-137zM455 -1v182h137v-182h-137zM455 599v182h137v-182h-137zM455 1199v182h137v-182h-137zM607 -1v182h137v-182h-137zM607 599v182h137v-182h-137zM607 1199v182h137v-182h-137zM759 -1v182h137v-182 h-137zM759 199v182h137v-182h-137zM759 399v182h137v-182h-137zM759 599v182h137v-182h-137zM759 999v182h137v-182h-137zM759 1199v182h137v-182h-137zM911 199v182h137v-182h-137zM911 399v182h137v-182h-137zM911 999v182h137v-182h-137z" />
<glyph unicode="t" horiz-adv-x="1194" d="M151 1199v182h137v-182h-137zM303 1199v182h137v-182h-137zM455 -1v182h137v-182h-137zM455 199v182h137v-182h-137zM455 399v182h137v-182h-137zM455 599v182h137v-182h-137zM455 799v182h137v-182h-137zM455 999v182h137v-182h-137zM455 1199v182h137v-182h-137z M607 -1v182h137v-182h-137zM607 199v182h137v-182h-137zM607 399v182h137v-182h-137zM607 599v182h137v-182h-137zM607 799v182h137v-182h-137zM607 999v182h137v-182h-137zM607 1199v182h137v-182h-137zM759 1199v182h137v-182h-137zM911 1199v182h137v-182h-137z" />
<glyph unicode="u" d="M-1 199v182h137v-182h-137zM-1 399v182h137v-182h-137zM-1 599v182h137v-182h-137zM-1 799v182h137v-182h-137zM-1 999v182h137v-182h-137zM-1 1199v182h137v-182h-137zM151 -1v182h137v-182h-137zM151 199v182h137v-182h-137zM151 399v182h137v-182h-137zM151 599v182 h137v-182h-137zM151 799v182h137v-182h-137zM151 999v182h137v-182h-137zM151 1199v182h137v-182h-137zM303 -1v182h137v-182h-137zM455 -1v182h137v-182h-137zM607 -1v182h137v-182h-137zM759 -1v182h137v-182h-137zM759 199v182h137v-182h-137zM759 399v182h137v-182h-137 zM759 599v182h137v-182h-137zM759 799v182h137v-182h-137zM759 999v182h137v-182h-137zM759 1199v182h137v-182h-137zM911 199v182h137v-182h-137zM911 399v182h137v-182h-137zM911 599v182h137v-182h-137zM911 799v182h137v-182h-137zM911 999v182h137v-182h-137zM911 1199 v182h137v-182h-137z" />
<glyph unicode="v" d="M-1 599v182h137v-182h-137zM-1 799v182h137v-182h-137zM-1 999v182h137v-182h-137zM-1 1199v182h137v-182h-137zM151 399v182h137v-182h-137zM151 599v182h137v-182h-137zM151 799v182h137v-182h-137zM151 999v182h137v-182h-137zM151 1199v182h137v-182h-137zM303 199 v182h137v-182h-137zM303 399v182h137v-182h-137zM455 -1v182h137v-182h-137zM455 199v182h137v-182h-137zM607 199v182h137v-182h-137zM607 399v182h137v-182h-137zM759 399v182h137v-182h-137zM759 599v182h137v-182h-137zM759 799v182h137v-182h-137zM759 999v182h137 v-182h-137zM759 1199v182h137v-182h-137zM911 599v182h137v-182h-137zM911 799v182h137v-182h-137zM911 999v182h137v-182h-137zM911 1199v182h137v-182h-137z" />
<glyph unicode="w" d="M-1 -1v182h137v-182h-137zM-1 199v182h137v-182h-137zM-1 399v182h137v-182h-137zM-1 599v182h137v-182h-137zM-1 799v182h137v-182h-137zM-1 999v182h137v-182h-137zM-1 1199v182h137v-182h-137zM151 -1v182h137v-182h-137zM151 199v182h137v-182h-137zM151 399v182h137 v-182h-137zM151 599v182h137v-182h-137zM151 799v182h137v-182h-137zM151 999v182h137v-182h-137zM151 1199v182h137v-182h-137zM303 199v182h137v-182h-137zM303 399v182h137v-182h-137zM455 399v182h137v-182h-137zM455 599v182h137v-182h-137zM607 199v182h137v-182h-137 zM607 399v182h137v-182h-137zM759 -1v182h137v-182h-137zM759 199v182h137v-182h-137zM759 399v182h137v-182h-137zM759 599v182h137v-182h-137zM759 799v182h137v-182h-137zM759 999v182h137v-182h-137zM759 1199v182h137v-182h-137zM911 -1v182h137v-182h-137zM911 199 v182h137v-182h-137zM911 399v182h137v-182h-137zM911 599v182h137v-182h-137zM911 799v182h137v-182h-137zM911 999v182h137v-182h-137zM911 1199v182h137v-182h-137z" />
<glyph unicode="x" d="M-1 -1v182h137v-182h-137zM-1 199v182h137v-182h-137zM-1 999v182h137v-182h-137zM-1 1199v182h137v-182h-137zM151 -1v182h137v-182h-137zM151 199v182h137v-182h-137zM151 399v182h137v-182h-137zM151 799v182h137v-182h-137zM151 999v182h137v-182h-137zM151 1199v182 h137v-182h-137zM303 199v182h137v-182h-137zM303 399v182h137v-182h-137zM303 599v182h137v-182h-137zM303 799v182h137v-182h-137zM303 999v182h137v-182h-137zM455 399v182h137v-182h-137zM455 599v182h137v-182h-137zM455 799v182h137v-182h-137zM607 199v182h137v-182 h-137zM607 399v182h137v-182h-137zM607 599v182h137v-182h-137zM607 799v182h137v-182h-137zM607 999v182h137v-182h-137zM759 -1v182h137v-182h-137zM759 199v182h137v-182h-137zM759 399v182h137v-182h-137zM759 799v182h137v-182h-137zM759 999v182h137v-182h-137z M759 1199v182h137v-182h-137zM911 -1v182h137v-182h-137zM911 199v182h137v-182h-137zM911 999v182h137v-182h-137zM911 1199v182h137v-182h-137z" />
<glyph unicode="y" horiz-adv-x="1194" d="M151 799v182h137v-182h-137zM151 999v182h137v-182h-137zM151 1199v182h137v-182h-137zM303 599v182h137v-182h-137zM303 799v182h137v-182h-137zM303 999v182h137v-182h-137zM303 1199v182h137v-182h-137zM455 -1v182h137v-182h-137zM455 199v182h137v-182h-137z M455 399v182h137v-182h-137zM455 599v182h137v-182h-137zM607 -1v182h137v-182h-137zM607 199v182h137v-182h-137zM607 399v182h137v-182h-137zM607 599v182h137v-182h-137zM759 599v182h137v-182h-137zM759 799v182h137v-182h-137zM759 999v182h137v-182h-137zM759 1199 v182h137v-182h-137zM911 799v182h137v-182h-137zM911 999v182h137v-182h-137zM911 1199v182h137v-182h-137z" />
<glyph unicode="z" d="M-1 -1v182h137v-182h-137zM-1 199v182h137v-182h-137zM-1 999v182h137v-182h-137zM-1 1199v182h137v-182h-137zM151 -1v182h137v-182h-137zM151 199v182h137v-182h-137zM151 399v182h137v-182h-137zM151 999v182h137v-182h-137zM151 1199v182h137v-182h-137zM303 -1v182 h137v-182h-137zM303 199v182h137v-182h-137zM303 399v182h137v-182h-137zM303 599v182h137v-182h-137zM303 1199v182h137v-182h-137zM455 -1v182h137v-182h-137zM455 399v182h137v-182h-137zM455 599v182h137v-182h-137zM455 799v182h137v-182h-137zM455 1199v182h137v-182 h-137zM607 -1v182h137v-182h-137zM607 599v182h137v-182h-137zM607 799v182h137v-182h-137zM607 999v182h137v-182h-137zM607 1199v182h137v-182h-137zM759 -1v182h137v-182h-137zM759 199v182h137v-182h-137zM759 799v182h137v-182h-137zM759 999v182h137v-182h-137z M759 1199v182h137v-182h-137zM911 -1v182h137v-182h-137zM911 199v182h137v-182h-137zM911 999v182h137v-182h-137zM911 1199v182h137v-182h-137z" />
<glyph unicode="{" horiz-adv-x="684" />
<glyph unicode="|" horiz-adv-x="532" />
<glyph unicode="}" horiz-adv-x="684" />
<glyph unicode="~" horiz-adv-x="1196" />
<glyph unicode="&#xa1;" horiz-adv-x="682" />
<glyph unicode="&#xa2;" horiz-adv-x="1139" />
<glyph unicode="&#xa3;" horiz-adv-x="1139" />
<glyph unicode="&#xa5;" horiz-adv-x="1139" />
<glyph unicode="&#xa6;" horiz-adv-x="532" />
<glyph unicode="&#xa7;" horiz-adv-x="1139" />
<glyph unicode="&#xa8;" horiz-adv-x="682" />
<glyph unicode="&#xa9;" horiz-adv-x="1509" />
<glyph unicode="&#xaa;" horiz-adv-x="758" />
<glyph unicode="&#xab;" horiz-adv-x="1139" />
<glyph unicode="&#xac;" horiz-adv-x="1196" />
<glyph unicode="&#xad;" horiz-adv-x="1201" d="M151 599v182h137v-182h-137zM303 599v182h137v-182h-137zM455 599v182h137v-182h-137zM607 599v182h137v-182h-137zM759 599v182h137v-182h-137z" />
<glyph unicode="&#xae;" horiz-adv-x="1509" />
<glyph unicode="&#xaf;" horiz-adv-x="1131" />
<glyph unicode="&#xb0;" horiz-adv-x="819" />
<glyph unicode="&#xb1;" horiz-adv-x="1124" />
<glyph unicode="&#xb2;" horiz-adv-x="682" />
<glyph unicode="&#xb3;" horiz-adv-x="682" />
<glyph unicode="&#xb4;" horiz-adv-x="682" />
<glyph unicode="&#xb5;" horiz-adv-x="1180" />
<glyph unicode="&#xb6;" horiz-adv-x="1100" />
<glyph unicode="&#xb7;" horiz-adv-x="682" />
<glyph unicode="&#xb8;" horiz-adv-x="682" />
<glyph unicode="&#xb9;" horiz-adv-x="682" />
<glyph unicode="&#xba;" horiz-adv-x="748" />
<glyph unicode="&#xbb;" horiz-adv-x="1139" />
<glyph unicode="&#xbc;" horiz-adv-x="1708" />
<glyph unicode="&#xbd;" horiz-adv-x="1708" />
<glyph unicode="&#xbe;" horiz-adv-x="1708" />
<glyph unicode="&#xbf;" horiz-adv-x="1251" />
<glyph unicode="&#xc0;" horiz-adv-x="1139" />
<glyph unicode="&#xc1;" horiz-adv-x="1366" />
<glyph unicode="&#xc2;" horiz-adv-x="1366" />
<glyph unicode="&#xc3;" horiz-adv-x="1366" />
<glyph unicode="&#xc4;" horiz-adv-x="1366" />
<glyph unicode="&#xc5;" horiz-adv-x="1366" />
<glyph unicode="&#xc6;" horiz-adv-x="2048" />
<glyph unicode="&#xc7;" horiz-adv-x="1479" />
<glyph unicode="&#xc8;" horiz-adv-x="1366" />
<glyph unicode="&#xc9;" horiz-adv-x="1366" />
<glyph unicode="&#xca;" horiz-adv-x="1366" />
<glyph unicode="&#xcb;" horiz-adv-x="1366" />
<glyph unicode="&#xcc;" horiz-adv-x="569" />
<glyph unicode="&#xcd;" horiz-adv-x="569" />
<glyph unicode="&#xce;" horiz-adv-x="569" />
<glyph unicode="&#xcf;" horiz-adv-x="569" />
<glyph unicode="&#xd0;" horiz-adv-x="1479" />
<glyph unicode="&#xd1;" horiz-adv-x="1479" />
<glyph unicode="&#xd2;" horiz-adv-x="1593" />
<glyph unicode="&#xd3;" horiz-adv-x="1593" />
<glyph unicode="&#xd4;" horiz-adv-x="1593" />
<glyph unicode="&#xd5;" horiz-adv-x="1593" />
<glyph unicode="&#xd6;" horiz-adv-x="1593" />
<glyph unicode="&#xd7;" horiz-adv-x="1196" />
<glyph unicode="&#xd8;" horiz-adv-x="1593" />
<glyph unicode="&#xd9;" horiz-adv-x="1479" />
<glyph unicode="&#xda;" horiz-adv-x="1479" />
<glyph unicode="&#xdb;" horiz-adv-x="1479" />
<glyph unicode="&#xdc;" horiz-adv-x="1479" />
<glyph unicode="&#xdd;" horiz-adv-x="1366" />
<glyph unicode="&#xde;" horiz-adv-x="1366" />
<glyph unicode="&#xdf;" horiz-adv-x="1251" />
<glyph unicode="&#xe0;" horiz-adv-x="1139" />
<glyph unicode="&#xe1;" horiz-adv-x="1139" />
<glyph unicode="&#xe2;" horiz-adv-x="1139" />
<glyph unicode="&#xe3;" horiz-adv-x="1139" />
<glyph unicode="&#xe4;" horiz-adv-x="1139" />
<glyph unicode="&#xe5;" horiz-adv-x="1139" />
<glyph unicode="&#xe6;" horiz-adv-x="1821" />
<glyph unicode="&#xe7;" horiz-adv-x="1024" />
<glyph unicode="&#xe8;" horiz-adv-x="1139" />
<glyph unicode="&#xe9;" horiz-adv-x="1139" />
<glyph unicode="&#xea;" horiz-adv-x="1139" />
<glyph unicode="&#xeb;" horiz-adv-x="1139" />
<glyph unicode="&#xec;" horiz-adv-x="569" />
<glyph unicode="&#xed;" horiz-adv-x="569" />
<glyph unicode="&#xee;" horiz-adv-x="569" />
<glyph unicode="&#xef;" horiz-adv-x="569" />
<glyph unicode="&#xf0;" horiz-adv-x="1139" />
<glyph unicode="&#xf1;" horiz-adv-x="1139" />
<glyph unicode="&#xf2;" horiz-adv-x="1139" />
<glyph unicode="&#xf3;" horiz-adv-x="1139" />
<glyph unicode="&#xf4;" horiz-adv-x="1139" />
<glyph unicode="&#xf5;" horiz-adv-x="1139" />
<glyph unicode="&#xf6;" horiz-adv-x="1139" />
<glyph unicode="&#xf7;" horiz-adv-x="1124" />
<glyph unicode="&#xf8;" horiz-adv-x="1251" />
<glyph unicode="&#xf9;" horiz-adv-x="1139" />
<glyph unicode="&#xfa;" horiz-adv-x="1139" />
<glyph unicode="&#xfb;" horiz-adv-x="1139" />
<glyph unicode="&#xfc;" horiz-adv-x="1139" />
<glyph unicode="&#xfd;" horiz-adv-x="1024" />
<glyph unicode="&#xfe;" horiz-adv-x="1139" />
<glyph unicode="&#xff;" horiz-adv-x="1024" />
<glyph unicode="&#x152;" horiz-adv-x="2048" />
<glyph unicode="&#x153;" horiz-adv-x="1933" />
<glyph unicode="&#x178;" horiz-adv-x="1366" />
<glyph unicode="&#x2c6;" horiz-adv-x="682" />
<glyph unicode="&#x2dc;" horiz-adv-x="682" />
<glyph unicode="&#x2000;" horiz-adv-x="690" />
<glyph unicode="&#x2001;" horiz-adv-x="1381" />
<glyph unicode="&#x2002;" horiz-adv-x="690" />
<glyph unicode="&#x2003;" horiz-adv-x="1381" />
<glyph unicode="&#x2004;" horiz-adv-x="460" />
<glyph unicode="&#x2005;" horiz-adv-x="345" />
<glyph unicode="&#x2006;" horiz-adv-x="230" />
<glyph unicode="&#x2007;" horiz-adv-x="230" />
<glyph unicode="&#x2008;" horiz-adv-x="172" />
<glyph unicode="&#x2009;" horiz-adv-x="276" />
<glyph unicode="&#x200a;" horiz-adv-x="76" />
<glyph unicode="&#x2010;" horiz-adv-x="1201" d="M151 599v182h137v-182h-137zM303 599v182h137v-182h-137zM455 599v182h137v-182h-137zM607 599v182h137v-182h-137zM759 599v182h137v-182h-137z" />
<glyph unicode="&#x2011;" horiz-adv-x="1201" d="M151 599v182h137v-182h-137zM303 599v182h137v-182h-137zM455 599v182h137v-182h-137zM607 599v182h137v-182h-137zM759 599v182h137v-182h-137z" />
<glyph unicode="&#x2012;" horiz-adv-x="1201" d="M151 599v182h137v-182h-137zM303 599v182h137v-182h-137zM455 599v182h137v-182h-137zM607 599v182h137v-182h-137zM759 599v182h137v-182h-137z" />
<glyph unicode="&#x2013;" horiz-adv-x="1139" />
<glyph unicode="&#x2014;" horiz-adv-x="2048" />
<glyph unicode="&#x2018;" horiz-adv-x="455" />
<glyph unicode="&#x2019;" horiz-adv-x="455" />
<glyph unicode="&#x201a;" horiz-adv-x="455" />
<glyph unicode="&#x201c;" horiz-adv-x="682" />
<glyph unicode="&#x201d;" horiz-adv-x="682" />
<glyph unicode="&#x201e;" horiz-adv-x="682" />
<glyph unicode="&#x2022;" horiz-adv-x="717" />
<glyph unicode="&#x2026;" horiz-adv-x="2048" />
<glyph unicode="&#x202f;" horiz-adv-x="276" />
<glyph unicode="&#x2039;" horiz-adv-x="682" />
<glyph unicode="&#x203a;" horiz-adv-x="682" />
<glyph unicode="&#x205f;" horiz-adv-x="345" />
<glyph unicode="&#x20ac;" horiz-adv-x="1139" />
<glyph unicode="&#x2122;" horiz-adv-x="2048" />
<glyph unicode="&#xe000;" horiz-adv-x="1380" d="M0 0v1380h1380v-1380h-1380z" />
<glyph unicode="&#xfb01;" horiz-adv-x="1024" />
<glyph unicode="&#xfb02;" horiz-adv-x="1024" />
</font>
</defs>
</svg>
